<svg width="199" height="152" viewBox="0 0 199 152" fill="none" xmlns="http://www.w3.org/2000/svg">
<path d="M196.595 95.2404C195.818 92.684 179.891 82.5175 178.09 65.8126C176.525 51.2997 172.65 44.0218 171.337 41.9156C171.059 41.4708 170.93 40.9456 170.973 40.4258C171.418 35.2862 173.352 6.92496 164.536 2.89479C157.114 -0.497633 141.749 18.6778 137.965 23.737C137.451 24.423 136.566 24.7177 135.741 24.4766C131.336 23.1743 108.832 21.0038 99.7427 21.0038C90.6533 21.0038 68.0586 23.1743 63.6533 24.4819C62.828 24.7285 61.9437 24.4283 61.4292 23.7424C57.6456 18.6778 42.2805 -0.497633 34.8526 2.89479C26.0366 6.92496 27.9713 35.2916 28.4161 40.4258C28.459 40.951 28.3303 41.4708 28.0517 41.9156C26.744 44.0165 22.8639 51.2944 21.299 65.8126C19.4983 82.5175 3.5705 92.684 2.79341 95.2404C0.542515 102.647 17.301 98.0862 19.509 101.564C20.9506 103.837 8.16876 108.044 8.07229 110.991C7.99726 113.205 15.8325 115.37 19.1767 118.939C22.7353 122.728 19.1767 118.939 29.295 130.328C52.356 156.283 147.14 156.159 170.094 130.328C180.212 118.939 176.654 122.728 180.212 118.939C183.562 115.37 191.392 113.205 191.317 110.991C191.22 108.044 178.438 103.837 179.88 101.564C182.088 98.0862 198.846 102.647 196.595 95.2404Z" fill="#FFDC9F" stroke="#2E2E2E" stroke-width="4" stroke-miterlimit="10"/>
<path d="M66.3054 85.5849C73.4564 85.5849 79.2534 78.6145 79.2534 70.0162C79.2534 61.4178 73.4564 54.4475 66.3054 54.4475C59.1544 54.4475 53.3574 61.4178 53.3574 70.0162C53.3574 78.6145 59.1544 85.5849 66.3054 85.5849Z" fill="white"/>
<path d="M77.9145 70.0164C77.8877 75.4079 75.3045 81.2012 70.1489 83.4521C67.9248 84.4222 65.3899 84.4865 63.0639 83.6826C60.738 82.8787 58.7336 81.1369 57.3563 79.079C54.1836 74.3253 53.7978 67.7816 56.3595 62.6742C57.5332 60.3322 59.2803 58.2957 61.5741 57.0256C63.7178 55.8412 66.242 55.4821 68.6001 56.0716C74.6614 57.5883 77.8823 64.1159 77.9145 70.0218C77.9252 71.7475 80.6048 71.7475 80.5941 70.0218C80.562 63.6818 77.4214 56.8487 71.3494 54.2066C68.5358 52.9847 65.3523 52.7542 62.4315 53.7457C59.5107 54.7371 57.0294 56.7737 55.2501 59.314C51.3378 64.893 51.0324 72.6854 54.055 78.7199C56.8472 84.2935 62.8549 88.0718 69.1574 86.5927C75.4599 85.1135 79.5598 78.9343 80.4012 72.7818C80.5244 71.8654 80.5995 70.9436 80.6048 70.0164C80.6156 68.2908 77.9359 68.2908 77.9252 70.0164H77.9145Z" fill="#2E2E2E"/>
<path d="M70.2927 84.6474C75.2416 84.6474 79.2534 78.0969 79.2534 70.0166C79.2534 61.9362 75.2416 55.3857 70.2927 55.3857C65.3439 55.3857 61.332 61.9362 61.332 70.0166C61.332 78.0969 65.3439 84.6474 70.2927 84.6474Z" fill="#2E2E2E"/>
<path d="M129.192 86.5173C136.343 86.5173 142.14 79.5469 142.14 70.9486C142.14 62.3502 136.343 55.3799 129.192 55.3799C122.041 55.3799 116.244 62.3502 116.244 70.9486C116.244 79.5469 122.041 86.5173 129.192 86.5173Z" fill="white"/>
<path d="M140.799 70.9491C140.772 76.3405 138.189 82.1339 133.034 84.3848C130.81 85.3548 128.275 85.4191 125.949 84.6152C123.623 83.8113 121.618 82.0695 120.241 80.0116C117.068 75.2579 116.683 68.7142 119.244 63.6068C120.418 61.2648 122.165 59.2283 124.459 57.9582C126.603 56.7738 129.127 56.4147 131.485 57.0042C137.546 58.5209 140.767 65.0485 140.799 70.9544C140.81 72.6801 143.49 72.6801 143.479 70.9544C143.447 64.6144 140.306 57.7813 134.234 55.1392C131.421 53.9173 128.237 53.6868 125.316 54.6783C122.396 55.6698 119.914 57.7063 118.135 60.2466C114.223 65.8256 113.917 73.618 116.94 79.6525C119.732 85.2262 125.74 89.0045 132.042 87.5253C138.345 86.0461 142.445 79.8669 143.286 73.7144C143.409 72.798 143.484 71.8762 143.49 70.9491C143.5 69.2234 140.821 69.2234 140.81 70.9491H140.799Z" fill="#2E2E2E"/>
<path d="M133.179 85.58C138.128 85.58 142.14 79.0295 142.14 70.9492C142.14 62.8688 138.128 56.3184 133.179 56.3184C128.231 56.3184 124.219 62.8688 124.219 70.9492C124.219 79.0295 128.231 85.58 133.179 85.58Z" fill="#2E2E2E"/>
<path d="M99.5926 102.665C97.5024 101.904 89.9727 98.8229 89.9727 93.812C89.9727 86.116 98.2581 88.2437 99.8605 89.9318C101.463 88.2437 109.748 86.116 109.748 93.812C109.748 98.8229 102.219 101.91 100.128 102.665C100.128 102.665 99.9355 102.708 99.8605 102.708C99.7855 102.708 99.5926 102.665 99.5926 102.665Z" fill="#2E2E2E"/>
<path d="M58.3158 113.1C60.8453 112.018 63.3803 110.935 65.9098 109.858L66.9817 109.402C67.6463 109.118 67.7963 108.137 67.464 107.569C67.0621 106.883 66.3011 106.803 65.6312 107.087C63.1016 108.17 60.5666 109.252 58.0371 110.329L56.9652 110.785C56.3007 111.069 56.1506 112.05 56.4829 112.618C56.8848 113.304 57.6458 113.384 58.3158 113.1Z" fill="#2E2E2E"/>
<path d="M60.6842 111.637C60.9682 113.454 61.8096 115.281 62.7582 116.83C64.993 120.485 68.5569 123.052 72.6675 124.199C75.6526 125.03 78.8253 125.158 81.8962 124.864C85.3154 124.537 88.7078 123.835 91.7412 122.168C96.0661 119.794 99.003 115.667 100.332 110.972C101.066 108.384 101.441 105.538 101.216 102.848C101.216 102.805 101.211 102.757 101.206 102.714C101.131 101.996 100.643 101.374 99.8658 101.374C99.1959 101.374 98.451 101.99 98.526 102.714C98.5849 103.303 98.5903 103.904 98.5796 104.498C98.5689 105.158 98.5314 105.817 98.4724 106.476C98.4563 106.658 98.4349 106.846 98.4135 107.028C98.4027 107.114 98.392 107.205 98.3813 107.291C98.4188 106.98 98.3867 107.237 98.3652 107.387C98.3063 107.8 98.2312 108.207 98.1508 108.614C97.9633 109.542 97.7167 110.458 97.4113 111.353C97.3309 111.583 97.2505 111.809 97.1647 112.034C97.1219 112.141 97.0844 112.243 97.0415 112.35C96.9289 112.639 97.0844 112.264 96.9557 112.553C96.7467 113.014 96.5323 113.47 96.2912 113.915C96.0339 114.392 95.7499 114.858 95.4498 115.308C95.0585 115.887 94.9782 115.989 94.5655 116.476C94.185 116.921 93.783 117.345 93.3543 117.741C92.9256 118.138 92.4539 118.529 92.1056 118.786C89.7582 120.48 87.159 121.386 84.2971 121.873C81.2959 122.388 77.9732 122.538 75.1274 122.023C72.7586 121.595 70.9525 120.935 69.0071 119.628C68.8088 119.494 68.6159 119.354 68.423 119.215C68.2139 119.065 68.4069 119.204 68.3533 119.161C68.2461 119.076 68.1336 118.985 68.0264 118.893C67.678 118.599 67.3404 118.288 67.0188 117.966C66.7241 117.672 66.4454 117.361 66.1774 117.039C66.1078 116.953 66.0434 116.873 65.9738 116.787C65.8023 116.584 66.0059 116.83 65.9577 116.771C65.8344 116.605 65.7112 116.439 65.5933 116.267C65.1752 115.667 64.8001 115.035 64.4678 114.381C64.3285 114.102 64.1999 113.824 64.0712 113.54C63.9426 113.256 64.1677 113.786 64.0873 113.582C64.0659 113.523 64.0391 113.465 64.0123 113.406C63.9587 113.272 63.9105 113.138 63.8569 113.004C63.6157 112.355 63.4656 111.696 63.2888 111.026C63.2781 110.994 63.2781 110.962 63.2727 110.93C63.1602 110.211 62.2652 109.82 61.622 109.992C60.8557 110.201 60.577 110.924 60.6842 111.642V111.637Z" fill="#2E2E2E"/>
<path d="M142.875 110.785C140.345 109.702 137.81 108.62 135.28 107.542C134.921 107.392 134.568 107.237 134.209 107.087C133.565 106.814 132.74 106.872 132.376 107.569C132.07 108.143 132.167 109.107 132.858 109.402C135.388 110.485 137.923 111.567 140.452 112.644C140.811 112.794 141.165 112.95 141.524 113.1C142.167 113.373 142.992 113.314 143.357 112.618C143.662 112.044 143.566 111.08 142.875 110.785Z" fill="#2E2E2E"/>
<path d="M136.576 110.924C136.501 111.39 136.372 111.851 136.228 112.301C136.153 112.537 136.078 112.768 135.992 112.998C135.944 113.121 135.901 113.245 135.852 113.368C135.831 113.427 135.804 113.486 135.783 113.545C135.681 113.802 135.906 113.271 135.788 113.529C135.509 114.134 135.22 114.724 134.882 115.297C134.69 115.624 134.48 115.946 134.266 116.256C134.154 116.412 134.041 116.567 133.929 116.723C133.778 116.926 134.073 116.546 133.912 116.739C133.832 116.835 133.757 116.932 133.677 117.028C133.114 117.698 132.498 118.32 131.828 118.882C131.731 118.963 131.64 119.038 131.544 119.118C131.345 119.279 131.683 119.016 131.474 119.172C131.265 119.327 131.061 119.472 130.847 119.617C130.418 119.906 129.973 120.169 129.518 120.415C129.287 120.539 129.057 120.656 128.821 120.764C128.709 120.817 128.596 120.865 128.483 120.919C128.446 120.935 128.248 121.021 128.457 120.93C128.376 120.962 128.301 120.994 128.221 121.026C127.664 121.241 127.106 121.434 126.533 121.594C123.778 122.371 120.975 122.462 118.044 122.189C115.112 121.916 111.934 121.241 109.324 119.777C108.183 119.14 107.395 118.572 106.494 117.73C106.066 117.334 105.664 116.91 105.283 116.465C104.865 115.978 104.79 115.871 104.399 115.297C103.799 114.413 103.3 113.47 102.866 112.489C102.759 112.253 102.92 112.628 102.823 112.387C102.78 112.28 102.738 112.178 102.7 112.071C102.609 111.83 102.518 111.583 102.432 111.337C102.277 110.876 102.132 110.415 102.009 109.943C101.778 109.08 101.607 108.207 101.473 107.323C101.467 107.269 101.425 106.969 101.451 107.183C101.478 107.398 101.441 107.103 101.435 107.049C101.414 106.851 101.392 106.653 101.371 106.454C101.339 106.101 101.312 105.747 101.291 105.393C101.248 104.53 101.291 103.678 101.301 102.821C101.301 102.778 101.307 102.735 101.312 102.697C101.387 101.974 100.642 101.358 99.9721 101.358C99.1843 101.358 98.7074 101.974 98.6323 102.697C98.4019 104.959 98.6859 107.349 99.1575 109.552C100.144 114.161 102.582 118.352 106.446 121.117C108.944 122.907 111.929 123.947 114.941 124.451C118.371 125.024 121.849 125.206 125.284 124.606C129.754 123.829 133.752 121.498 136.415 117.816C137.696 116.047 138.736 113.893 139.138 111.728C139.143 111.69 139.148 111.658 139.154 111.621C139.266 110.908 138.972 110.179 138.216 109.97C137.578 109.793 136.678 110.184 136.565 110.908L136.576 110.924Z" fill="#2E2E2E"/>
<path d="M72.2547 94.0904C71.4187 93.5277 70.4915 93.0883 69.5697 92.6809C67.2063 91.6359 64.725 90.8856 62.1632 90.5104C58.9959 90.0442 55.7535 90.0603 52.5648 90.3336C50.33 90.5212 48.0898 90.8481 45.9139 91.4001C44.9278 91.652 43.9578 91.9414 43.0199 92.3433C42.3554 92.6274 42.2053 93.6081 42.5376 94.1762C42.9395 94.8622 43.7005 94.9426 44.3704 94.6585C43.6737 94.9586 44.4348 94.6424 44.6063 94.5835C45.11 94.4066 45.6245 94.2512 46.1444 94.1119C47.9558 93.6188 49.8155 93.2919 51.6698 93.099C57.1523 92.5255 62.7206 92.7453 67.8655 94.8568C68.1013 94.9533 68.6372 95.1945 69.0177 95.382C69.3554 95.5428 69.6876 95.7143 70.0146 95.8965C70.3093 96.0573 70.6094 96.2288 70.8881 96.4164C72.3244 97.381 73.6642 95.0605 72.2387 94.1012L72.2547 94.0904Z" fill="#2E2E2E"/>
<path d="M128.941 96.2821C129.739 95.7462 130.624 95.3175 131.497 94.9263C132.237 94.594 133.298 94.2028 134.241 93.908C135.49 93.5221 136.771 93.222 138.062 93.0184C141.047 92.5414 144.172 92.6271 147.173 92.879C149.188 93.0451 151.187 93.3506 153.154 93.8437C153.797 94.0045 154.43 94.1867 155.057 94.3957C155.239 94.46 156.182 94.8351 155.464 94.5297C156.128 94.8137 156.9 94.728 157.297 94.0473C157.629 93.4846 157.484 92.4985 156.814 92.2145C154.135 91.0676 151.134 90.6067 148.256 90.3012C142.511 89.6902 136.578 89.9528 131.181 92.1716C129.954 92.6754 128.694 93.2274 127.585 93.9723C126.159 94.9263 127.499 97.2522 128.936 96.2875L128.941 96.2821Z" fill="#2E2E2E"/>
<path d="M68.5361 100.591C65.4331 99.5891 61.8585 99.6427 58.6804 100.157C54.5216 100.827 50.261 102.392 46.6328 104.541C45.9522 104.943 45.2823 105.377 44.6659 105.881C44.1032 106.336 44.189 107.301 44.6659 107.778C45.2233 108.335 45.995 108.234 46.5631 107.778C46.7239 107.644 46.2952 107.971 46.3916 107.907C46.4827 107.848 46.5685 107.778 46.6542 107.714C46.9704 107.489 47.2973 107.274 47.6296 107.071C48.873 106.304 50.1913 105.645 51.5365 105.077C55.706 103.325 60.2078 102.178 64.7578 102.601C65.7011 102.687 66.7997 102.848 67.8234 103.174C69.4687 103.705 70.1707 101.117 68.5361 100.591Z" fill="#2E2E2E"/>
<path d="M129.552 103.174C130.329 102.923 131.261 102.762 131.985 102.665C133.946 102.413 136.197 102.429 138.228 102.778C142.076 103.442 145.972 104.841 149.343 106.824C149.783 107.081 150.212 107.349 150.63 107.644C150.737 107.719 150.839 107.799 150.946 107.875C151.16 108.025 150.635 107.628 150.812 107.773C151.375 108.228 152.157 108.319 152.709 107.773C153.181 107.301 153.272 106.336 152.709 105.875C151.026 104.509 149.006 103.528 147.023 102.687C142.468 100.752 137.516 99.4444 132.531 99.9267C131.299 100.045 130.023 100.211 128.839 100.591C127.204 101.116 127.901 103.705 129.552 103.174Z" fill="#2E2E2E"/>
</svg>
