<svg width="263" height="276" viewBox="0 0 263 276" fill="none" xmlns="http://www.w3.org/2000/svg">
<path d="M164.9 211.628L131.241 208.165L134.586 243.17L107.104 222.675L93.1374 254.703L79.1857 222.69L51.7191 243.17L55.0489 208.165L21.3898 211.628L41.082 183.062L10.3008 168.537L41.082 154.027L21.3898 125.446L55.0489 128.925L51.7191 93.9193L79.1857 114.399L93.1374 82.3867L107.104 114.399L134.586 93.9193L131.241 128.925L164.9 125.446L145.208 154.027L175.989 168.537L145.208 183.062L164.9 211.628Z" fill="#E17B51"/>
<mask id="path-2-outside-1_550_5583" maskUnits="userSpaceOnUse" x="-5.34351" y="-2.9353" width="108.788" height="281.813" fill="black">
<rect fill="white" x="-5.34351" y="-2.9353" width="108.788" height="281.813"/>
<path d="M68.9345 24.9589L19.9377 262.896C19.9377 262.896 18.8124 269.974 25.5634 271.665C32.975 273.522 34.2163 266.474 34.2163 266.474L76.989 26.1283C76.989 26.1283 82.3818 25.2652 84.3707 22.315C87.929 17.0424 88.1139 6.66613 76.8201 4.78551C65.5262 2.90489 62.5611 12.5846 63.9138 18.5476C64.8447 22.6536 68.9327 24.9662 68.9327 24.9662L68.9345 24.9589Z"/>
</mask>
<path d="M68.9345 24.9589L19.9377 262.896C19.9377 262.896 18.8124 269.974 25.5634 271.665C32.975 273.522 34.2163 266.474 34.2163 266.474L76.989 26.1283C76.989 26.1283 82.3818 25.2652 84.3707 22.315C87.929 17.0424 88.1139 6.66613 76.8201 4.78551C65.5262 2.90489 62.5611 12.5846 63.9138 18.5476C64.8447 22.6536 68.9327 24.9662 68.9327 24.9662L68.9345 24.9589Z" fill="#DDC29B"/>
<path d="M68.9345 24.9589L72.8523 25.7657C73.2912 23.6343 71.9458 21.5431 69.8242 21.0591C67.7026 20.5751 65.5833 21.876 65.0545 23.9868L68.9345 24.9589ZM19.9377 262.896L16.0199 262.089C16.0077 262.149 15.9968 262.208 15.9873 262.268L19.9377 262.896ZM34.2163 266.474L30.2782 265.773L30.277 265.78L34.2163 266.474ZM76.989 26.1283L76.3569 22.1785C74.6757 22.4476 73.3491 23.7513 73.0508 25.4274L76.989 26.1283ZM84.3707 22.315L81.0551 20.0775L81.054 20.079L84.3707 22.315ZM63.9138 18.5476L67.8149 17.6633L67.8147 17.6626L63.9138 18.5476ZM68.9327 24.9662L66.9632 28.4478C68.0502 29.0627 69.362 29.1346 70.5097 28.6422C71.6574 28.1499 72.5093 27.1497 72.8128 25.9383L68.9327 24.9662ZM65.0167 24.1522L16.0199 262.089L23.8555 263.703L72.8523 25.7657L65.0167 24.1522ZM19.9377 262.896C15.9873 262.268 15.987 262.27 15.9867 262.272C15.9866 262.273 15.9863 262.275 15.9861 262.276C15.9856 262.279 15.9852 262.281 15.9847 262.284C15.9838 262.29 15.9828 262.297 15.9818 262.304C15.9797 262.317 15.9774 262.333 15.975 262.35C15.97 262.385 15.9643 262.427 15.9582 262.475C15.9459 262.573 15.9318 262.698 15.9184 262.848C15.8917 263.146 15.8674 263.549 15.8673 264.028C15.8673 264.971 15.9612 266.296 16.3711 267.739C17.2394 270.797 19.5497 274.282 24.5913 275.546L26.5355 267.785C24.8262 267.357 24.3235 266.458 24.0668 265.554C23.9141 265.016 23.8673 264.466 23.8673 264.029C23.8673 263.818 23.8782 263.655 23.8867 263.559C23.8908 263.512 23.8943 263.484 23.8952 263.477C23.8957 263.473 23.8955 263.475 23.8944 263.483C23.8938 263.487 23.893 263.492 23.892 263.499C23.8915 263.502 23.8909 263.506 23.8902 263.51C23.8899 263.513 23.8896 263.515 23.8892 263.517C23.889 263.518 23.8887 263.52 23.8887 263.521C23.8884 263.522 23.8881 263.524 19.9377 262.896ZM24.5913 275.546C27.0669 276.166 29.3379 276.112 31.3467 275.419C33.347 274.729 34.787 273.509 35.78 272.28C36.7542 271.075 37.3295 269.828 37.6611 268.926C37.8305 268.464 37.9467 268.065 38.0235 267.765C38.0621 267.614 38.0914 267.486 38.1128 267.386C38.1235 267.335 38.1323 267.292 38.1394 267.255C38.143 267.237 38.1461 267.22 38.1488 267.206C38.1501 267.198 38.1514 267.191 38.1526 267.185C38.1531 267.182 38.1537 267.179 38.1542 267.176C38.1545 267.174 38.1549 267.172 38.155 267.171C38.1554 267.169 38.1557 267.167 34.2163 266.474C30.277 265.78 30.2773 265.778 30.2777 265.776C30.2778 265.775 30.2782 265.773 30.2784 265.772C30.2788 265.769 30.2793 265.767 30.2797 265.764C30.2805 265.76 30.2813 265.755 30.2821 265.752C30.2835 265.744 30.2847 265.737 30.2857 265.732C30.2876 265.722 30.2886 265.718 30.2884 265.719C30.288 265.721 30.2833 265.742 30.2735 265.781C30.2535 265.859 30.2148 265.995 30.1521 266.166C30.0192 266.528 29.821 266.926 29.5584 267.251C29.3146 267.553 29.0546 267.747 28.7377 267.856C28.4292 267.963 27.7657 268.094 26.5355 267.785L24.5913 275.546ZM38.1545 267.174L80.9271 26.8291L73.0508 25.4274L30.2782 265.773L38.1545 267.174ZM76.989 26.1283C77.6211 30.078 77.622 30.0779 77.623 30.0777C77.6233 30.0777 77.6243 30.0775 77.625 30.0774C77.6264 30.0772 77.6279 30.0769 77.6294 30.0767C77.6326 30.0762 77.636 30.0756 77.6398 30.075C77.6474 30.0737 77.6564 30.0722 77.6667 30.0705C77.6872 30.0671 77.713 30.0627 77.7438 30.0572C77.8053 30.0464 77.8869 30.0315 77.9864 30.0122C78.1849 29.9737 78.4569 29.9172 78.7839 29.8398C79.4319 29.6865 80.3261 29.444 81.309 29.0842C83.0826 28.435 85.955 27.1207 87.6874 24.551L81.054 20.079C80.7975 20.4596 79.979 21.0519 78.559 21.5717C77.945 21.7965 77.3668 21.9542 76.9414 22.0549C76.7318 22.1045 76.5669 22.1384 76.4628 22.1586C76.4109 22.1687 76.3747 22.1752 76.3563 22.1785C76.3516 22.1793 76.3482 22.1799 76.3458 22.1803C76.3435 22.1807 76.3423 22.1809 76.3423 22.1809C76.3423 22.1809 76.3435 22.1807 76.3459 22.1803C76.3471 22.1801 76.3486 22.1799 76.3504 22.1796C76.3514 22.1794 76.3523 22.1793 76.3534 22.1791C76.3539 22.179 76.3548 22.1789 76.3551 22.1788C76.356 22.1787 76.3569 22.1785 76.989 26.1283ZM87.6863 24.5526C90.0247 21.0876 91.2845 16.0008 90.0325 11.2574C88.6745 6.11262 84.5338 2.01491 77.4771 0.839839L76.1631 8.73118C80.4002 9.43674 81.8139 11.4675 82.2974 13.2991C82.8868 15.5322 82.275 18.2698 81.0551 20.0775L87.6863 24.5526ZM77.4771 0.839839C70.4516 -0.330037 65.2621 2.12582 62.3122 6.48265C59.6036 10.4833 59.1363 15.5681 60.013 19.4326L67.8147 17.6626C67.3386 15.5641 67.6775 12.8276 68.9367 10.9678C69.9548 9.46414 71.8948 8.02043 76.1631 8.73118L77.4771 0.839839ZM60.0128 19.432C60.7178 22.5416 62.5644 24.8037 64.0041 26.184C64.746 26.8953 65.4474 27.4376 65.9718 27.808C66.2359 27.9945 66.4605 28.1412 66.6298 28.2474C66.7146 28.3006 66.786 28.3439 66.8421 28.3773C66.8702 28.394 66.8945 28.4082 66.9147 28.4199C66.9248 28.4258 66.934 28.4311 66.9421 28.4357C66.9461 28.438 66.9499 28.4402 66.9534 28.4422C66.9552 28.4432 66.9569 28.4442 66.9585 28.4451C66.9593 28.4456 66.9605 28.4462 66.9609 28.4464C66.9621 28.4471 66.9632 28.4478 68.9327 24.9662C70.9022 21.4847 70.9033 21.4853 70.9044 21.4859C70.9048 21.4861 70.9058 21.4867 70.9065 21.4871C70.9079 21.4879 70.9093 21.4887 70.9105 21.4894C70.9131 21.4908 70.9154 21.4922 70.9175 21.4933C70.9216 21.4957 70.9249 21.4976 70.9272 21.499C70.932 21.5017 70.9332 21.5024 70.9311 21.5012C70.9268 21.4987 70.9095 21.4883 70.8807 21.4702C70.8228 21.4339 70.7207 21.3679 70.587 21.2735C70.3158 21.0819 69.9371 20.7895 69.5406 20.4093C68.7035 19.6068 68.0407 18.6597 67.8149 17.6633L60.0128 19.432ZM72.8128 25.9383L72.8146 25.9311L65.0545 23.9868L65.0526 23.9941L72.8128 25.9383Z" fill="#2E2E2E" mask="url(#path-2-outside-1_550_5583)"/>
<path d="M80.598 27.8183C56.2334 27.6698 64.1705 20.2849 71.9177 22.4033C77.5634 23.949 80.598 27.8183 80.598 27.8183Z" fill="#2E2E2E" stroke="#2E2E2E" stroke-width="4" stroke-linecap="round" stroke-linejoin="round"/>
<path d="M80.7137 29.822C80.7137 29.822 70.0201 25.4533 63.9749 27.719C62.9275 28.1123 62.633 32.4899 68.0603 31.6433C71.3512 31.1331 80.7137 29.822 80.7137 29.822Z" fill="#2E2E2E" stroke="#2E2E2E" stroke-width="4" stroke-linecap="round" stroke-linejoin="round"/>
<path d="M64.1339 32.8128C63.8436 32.7092 63.8619 32.2971 64.1578 32.2247C67.2165 31.4403 76.701 29.2109 79.1322 31.1161C79.8543 31.6827 79.147 34.1054 78.4388 34.684C75.9513 36.6992 67.0556 33.8379 64.1412 32.8146L64.1339 32.8128Z" fill="#2E2E2E" stroke="#2E2E2E" stroke-width="4" stroke-linecap="round" stroke-linejoin="round"/>
<path d="M79.7503 31.2105C95.25 35.5798 108.046 46.3692 121.936 54.208C129.243 58.33 137.031 61.7933 145.288 63.4455C154.767 65.3343 164.494 64.7548 173.806 62.2276C176.562 61.483 179.274 60.5733 181.932 59.5419C184.368 58.5939 186.831 57.6912 188.785 55.8972C191.731 53.1943 192.909 49.1075 192.96 45.2089C192.999 41.9709 192.315 38.7599 190.489 36.0419C187.982 32.3126 184.047 29.8222 179.771 28.5967C170.142 25.8294 160.715 30.1407 153.305 36.1301C149.212 39.4404 145.533 43.2864 142.142 47.3049C138.541 51.5792 135.268 56.1441 132.439 60.967C129.611 65.7899 127.227 70.8707 125.33 76.135C123.587 80.9675 122.33 86.0453 122.242 91.1999C122.158 96.2782 123.413 101.368 126.253 105.613C129.066 109.813 133.048 113.102 137.383 115.63C146.063 120.706 156.342 123.034 166.36 122.589C171.376 122.365 176.395 121.454 181.152 119.838C185.908 118.221 190.726 116.173 193.367 111.851C194.648 109.757 194.981 107.256 193.949 104.999C192.983 102.883 191.002 101.553 188.79 100.991C186.577 100.429 184.125 100.548 181.827 100.913C179.529 101.279 177.066 101.842 174.735 102.492C165.142 105.188 156.216 110.204 150.27 118.357C143.849 127.172 141.706 138.068 137.321 147.87C133.987 155.328 128.685 163.373 120.67 166.326C118.724 167.042 116.642 167.5 114.557 167.417C112.792 167.346 110.702 166.729 110.086 164.878C109.47 163.026 110.723 161.01 111.785 159.602C113.148 157.799 114.938 156.319 116.645 154.864C123.725 148.838 131.8 143.887 140.345 140.234C157.579 132.849 176.952 130.257 195.48 133.349C199.959 134.101 204.372 135.176 208.693 136.559C209.657 136.87 210.728 136.135 210.963 135.199C211.223 134.161 210.566 133.24 209.602 132.929C191.838 127.221 172.523 126.965 154.472 131.515C145.48 133.783 136.766 137.278 128.716 141.88C124.7 144.176 120.849 146.767 117.203 149.619C113.604 152.436 109.479 155.476 107.357 159.634C106.339 161.632 105.796 163.988 106.569 166.164C107.401 168.51 109.377 170.046 111.713 170.732C115.961 171.974 120.871 170.604 124.673 168.609C132.394 164.549 137.662 156.581 140.996 148.752C145.083 139.153 147.326 128.413 153.714 119.946C159.488 112.296 168.373 107.934 177.489 105.635C179.605 105.101 181.775 104.572 183.954 104.401C185.766 104.253 187.87 104.263 189.417 105.26C193.307 107.778 188.568 112.191 186.102 113.657C182.086 116.045 177.174 117.36 172.606 118.167C167.89 119.007 162.984 119.128 158.234 118.594C149.082 117.558 139.466 114.03 132.75 107.549C129.339 104.257 126.936 100.114 126.238 95.3873C125.54 90.6607 126.314 85.7242 127.638 81.1184C130.518 71.0702 135.744 61.5404 142.103 53.2817C145.346 49.0798 148.92 45.0995 152.819 41.486C156.275 38.286 160.118 35.3531 164.459 33.455C168.348 31.7599 172.644 30.9617 176.847 31.737C180.653 32.4359 184.431 34.231 186.853 37.345C187.779 38.5416 188.485 39.8832 188.832 41.359C189.008 42.105 189.03 42.2648 189.097 42.7984C189.191 43.6243 189.237 44.4538 189.23 45.285C189.188 48.4377 188.23 51.9238 185.358 53.8735C183.257 55.2991 180.623 56.0818 178.245 56.921C175.733 57.8036 173.18 58.5682 170.588 59.184C165.97 60.2797 161.24 60.8691 156.486 60.8431C148.234 60.8044 140.129 58.7584 132.618 55.4186C118.025 48.9389 105.738 38.3693 91.3117 31.592C87.873 29.9822 84.3254 28.5919 80.6723 27.561C78.3512 26.91 77.4419 30.5396 79.763 31.1905L79.7503 31.2105Z" fill="#2E2E2E"/>
<path d="M214.876 128.758C214.876 128.758 233.378 115.51 239.198 112.54C244.373 109.902 248.631 119.015 243.313 120.445C234.948 122.7 213.427 134.543 213.427 134.543" fill="#ECB300"/>
<path d="M214.876 128.758C214.876 128.758 233.378 115.51 239.198 112.54C244.373 109.902 248.631 119.015 243.313 120.445C234.948 122.7 213.427 134.543 213.427 134.543" stroke="#2E2E2E" stroke-width="3" stroke-linecap="round" stroke-linejoin="round"/>
<path d="M214.68 130.769C214.68 130.769 241.315 120.593 247.731 119.616C254.814 118.536 255.481 131.548 247.883 131.45C240.286 131.352 212.053 135.65 212.053 135.65" fill="#ECB300"/>
<path d="M214.68 130.769C214.68 130.769 241.315 120.593 247.731 119.616C254.814 118.536 255.481 131.548 247.883 131.45C240.286 131.352 212.053 135.65 212.053 135.65" stroke="#2E2E2E" stroke-width="3" stroke-linecap="round" stroke-linejoin="round"/>
<path d="M212.539 133.712C212.539 133.712 249.677 128.328 255.702 132.607C258.42 134.538 256.21 145.085 252.945 144.445C239.649 141.839 210.658 137.584 210.658 137.584" fill="#ECB300"/>
<path d="M212.539 133.712C212.539 133.712 249.677 128.328 255.702 132.607C258.42 134.538 256.21 145.085 252.945 144.445C239.649 141.839 210.658 137.584 210.658 137.584" stroke="#2E2E2E" stroke-width="3" stroke-linecap="round" stroke-linejoin="round"/>
<path d="M209.607 142.859C209.607 142.859 219.677 163.265 223.41 168.628C226.729 173.394 234.782 167.365 230.765 163.597C224.452 157.664 211.057 137.073 211.057 137.073" fill="#ECB300"/>
<path d="M209.607 142.859C209.607 142.859 219.677 163.265 223.41 168.628C226.729 173.394 234.782 167.365 230.765 163.597C224.452 157.664 211.057 137.073 211.057 137.073" stroke="#2E2E2E" stroke-width="3" stroke-linecap="round" stroke-linejoin="round"/>
<path d="M210.383 140.993C210.383 140.993 229.073 162.525 234.271 166.412C240.008 170.703 246.731 159.543 239.985 156.047C233.239 152.552 210.367 135.45 210.367 135.45" fill="#ECB300"/>
<path d="M210.383 140.993C210.383 140.993 229.073 162.525 234.271 166.412C240.008 170.703 246.731 159.543 239.985 156.047C233.239 152.552 210.367 135.45 210.367 135.45" stroke="#2E2E2E" stroke-width="3" stroke-linecap="round" stroke-linejoin="round"/>
<path d="M209.881 137.389C209.881 137.389 240.094 159.647 247.425 158.715C250.732 158.293 253.756 147.949 250.575 146.975C237.621 143.004 210.049 133.088 210.049 133.088" fill="#ECB300"/>
<path d="M209.881 137.389C209.881 137.389 240.094 159.647 247.425 158.715C250.732 158.293 253.756 147.949 250.575 146.975C237.621 143.004 210.049 133.088 210.049 133.088" stroke="#2E2E2E" stroke-width="3" stroke-linecap="round" stroke-linejoin="round"/>
<path d="M212.704 136.044C210.521 141.43 211.237 143.839 208.281 142.396C205.641 141.11 206.77 140.081 208.953 134.695C211.135 129.31 210.519 127.89 213.493 128.643C217.841 129.732 214.879 130.656 212.696 136.042L212.704 136.044Z" fill="#ECB300" stroke="#2E2E2E" stroke-width="3" stroke-linecap="round" stroke-linejoin="round"/>
</svg>
