<svg width="186" height="169" viewBox="0 0 186 169" fill="none" xmlns="http://www.w3.org/2000/svg">
<path d="M185.602 24.1668C181.078 6.37908 161.805 1.86822 150.716 0.772464C145.841 0.279374 141.511 3.87711 140.877 8.93584L134.382 59.505C131.214 57.8796 127.729 57.1125 124.103 57.2404C114.845 57.5508 106.643 64.2532 104.179 73.4941C102.401 80.1052 103.58 87.0632 107.364 92.5968C110.849 97.6738 116.165 100.961 122.079 101.783C122.607 101.856 123.135 101.911 123.663 101.947C134.875 102.641 144.82 93.9299 146.351 82.0958L153.779 24.2399C154.94 22.1397 156.63 20.9709 158.936 20.6787C164.392 20.003 172.365 24.6051 176.414 29.3352C178.086 31.3075 180.726 31.8189 182.961 30.577C185.197 29.3352 186.27 26.7784 185.619 24.2216L185.602 24.1668ZM180.99 26.7419C180.744 26.888 180.057 27.1436 179.476 26.4679C174.671 20.8065 165.483 15.5286 158.443 16.4052C154.676 16.8618 151.755 18.9803 149.959 22.5232L149.783 22.8519L142.25 81.4931C141.018 91.1175 132.956 98.2034 123.892 97.6555C118.594 97.3085 113.789 94.5691 110.709 90.0948C107.646 85.6205 106.696 79.9773 108.139 74.6264C110.145 67.157 116.763 61.7513 124.244 61.4956C125.247 61.459 126.233 61.4956 127.201 61.6417C129.929 62.0252 132.534 63.0479 134.822 64.7098L137.603 66.7004L144.943 9.48373C145.295 6.70781 147.653 4.75371 150.311 5.02765C160.344 6.03209 177.716 9.95855 181.589 25.2443C181.817 26.1757 181.236 26.5958 180.972 26.7419H180.99Z" fill="#2E2E2E"/>
<path d="M180.99 26.7415C180.744 26.8876 180.057 27.1433 179.477 26.4676C174.672 20.8062 165.484 15.5283 158.443 16.4049C154.677 16.8615 151.755 18.9799 149.959 22.5229L149.783 22.8516L142.25 81.4928C141.018 91.1171 132.957 98.203 123.892 97.6552C118.594 97.3082 113.789 94.5688 110.709 90.0945C107.646 85.6201 106.696 79.977 108.139 74.626C110.146 67.1566 116.764 61.7509 124.244 61.4952C125.247 61.4587 126.233 61.4952 127.201 61.6413C129.929 62.0249 132.534 63.0475 134.822 64.7094L137.603 66.7001L144.943 9.48338C145.295 6.70747 147.654 4.75337 150.311 5.02731C160.344 6.03175 177.717 9.95821 181.589 25.244C181.818 26.1754 181.237 26.5954 180.973 26.7415H180.99Z" fill="white"/>
<path d="M55.9653 74.0639L11.7507 78.3922C10.4011 78.5195 9.08218 78.8696 7.85528 79.4424C1.46003 82.3544 -1.4692 90.1357 1.33734 96.7713L15.2627 129.726C12.4562 130.49 9.92568 131.906 7.73258 133.927C1.96613 139.242 -0.272972 147.803 2.21151 155.218C3.97519 160.517 7.80928 164.798 12.7629 166.994C17.7165 169.19 23.3603 169.126 28.2219 166.771C37.5924 162.284 41.7639 150.429 37.5004 140.356L18.6674 95.7688L54.7691 92.4271L68.3264 124.539C65.5198 125.303 63.0047 126.703 60.8116 128.724C55.0451 134.039 52.806 142.6 55.2905 150.015C57.0542 155.314 60.8883 159.594 65.8419 161.79C70.6728 163.939 76.1786 163.907 80.9788 161.727L81.3009 161.583C90.6714 157.096 94.8275 145.257 90.564 135.168L67.8049 81.2883C65.7652 76.4668 61.0109 73.5707 55.9806 74.0639H55.9653ZM87.2054 136.696C90.6714 144.907 87.3281 154.534 79.7519 158.162C75.8412 160.056 71.2403 160.119 67.2375 158.337C63.1887 156.539 60.1521 153.166 58.7105 148.806C56.7168 142.822 58.5265 135.885 63.2041 131.588C64.3849 130.506 65.6885 129.631 67.1148 128.978C68.3724 128.406 69.722 128.008 71.1483 127.801L73.5254 127.451L57.0388 88.4171L13.2843 92.4749L34.1571 141.884C37.6231 150.095 34.2644 159.722 26.7036 163.35C22.7622 165.243 18.192 165.307 14.1892 163.525C10.1251 161.743 7.10381 158.353 5.64686 153.993C3.65313 147.994 5.46281 141.072 10.1557 136.76C12.3948 134.691 15.0633 133.418 18.0846 132.988L20.4617 132.638L4.66532 95.2596C2.6716 90.5176 4.74201 84.9959 9.31223 82.9114C10.1864 82.5136 11.1219 82.259 12.0881 82.1635L56.3027 77.8353C59.7687 77.5011 63.0354 79.4902 64.4463 82.8159L87.2054 136.696Z" fill="#2E2E2E"/>
<path d="M64.4457 82.7991L87.2048 136.679C90.6708 144.89 87.3274 154.517 79.7513 158.145C75.8405 160.039 71.2397 160.103 67.2369 158.32C63.1881 156.522 60.1515 153.149 58.7099 148.789C56.7161 142.806 58.5258 135.868 63.2034 131.571C64.3843 130.489 65.6879 129.614 67.1142 128.962C68.3718 128.389 69.7213 127.991 71.1476 127.784L73.5248 127.434L57.0382 88.4003L13.2837 92.458L34.1564 141.867C37.6224 150.078 34.2638 159.705 26.703 163.333C22.7615 165.227 18.1913 165.29 14.1885 163.508C10.1244 161.726 7.10317 158.336 5.64622 153.976C3.65249 147.977 5.46217 141.055 10.1551 136.743C12.3942 134.674 15.0627 133.401 18.084 132.972L20.4611 132.622L4.66468 95.2428C2.67096 90.5008 4.74137 84.9791 9.31159 82.8945C10.1858 82.4967 11.1213 82.2421 12.0875 82.1466L56.3021 77.8184C59.7681 77.4842 63.0347 79.4733 64.4457 82.7991Z" fill="white"/>
</svg>
